<svg width="67" height="60" viewBox="0 0 67 60" fill="none" xmlns="http://www.w3.org/2000/svg">
<path fill-rule="evenodd" clip-rule="evenodd" d="M32.7651 37.0086C32.7651 37.5221 32.6293 38.0266 32.3712 38.4713L25.3088 50.6442C24.7836 51.5494 23.8131 52.107 22.7628 52.107H9.54749C8.4972 52.107 7.52668 51.5494 7.00154 50.6442L0.393855 39.2552C-0.131285 38.35 -0.131285 37.2349 0.393855 36.3297L7.34392 24.3506C7.67197 23.7851 8.17491 23.347 8.78948 23.1184C12.8105 21.6225 28.5395 16.2259 32.2939 21.8353C32.7651 22.5393 32.7651 24.1819 32.7651 24.1819C32.7651 24.1819 32.7651 24.1819 32.7651 24.1819V37.0086Z" fill="black"/>
<path fill-rule="evenodd" clip-rule="evenodd" d="M32 21.015C32.5 22.5 32.5211 22.5857 32 23.5L25.1705 35.5041C24.6485 36.4201 23.6828 36.9845 22.6376 36.9845L9.49737 36.9845C8.45221 36.9845 7.48655 36.4201 6.96452 35.5041L0.390796 23.9695C-0.130265 23.0552 -0.130264 21.9293 0.390797 21.015L6.96452 9.48038C7.48655 8.5644 8.45221 8 9.49737 8L22.6376 8C23.6828 8 24.6485 8.5644 25.1705 9.48038L32 21.015Z" fill="#F2D348"/>
<path fill-rule="evenodd" clip-rule="evenodd" d="M9.80331 8.57969C8.86136 8.57969 7.99106 9.07749 7.52059 9.88538L0.937745 21.1893C0.46814 21.9957 0.468139 22.9888 0.937744 23.7952L7.52059 35.0991C7.99106 35.907 8.86136 36.4048 9.80331 36.4048L22.9618 36.4048C23.9037 36.4048 24.774 35.907 25.2445 35.0991L31.8274 23.7952C32.297 22.9888 32.297 21.9957 31.8274 21.1893L25.2445 9.88538C24.774 9.07749 23.9037 8.57969 22.9618 8.57969L9.80331 8.57969ZM7.01331 9.59584C7.58833 8.60843 8.65204 8 9.80331 8L22.9618 8C24.1131 8 25.1768 8.60843 25.7518 9.59584L32.3346 20.8998C32.9086 21.8854 32.9086 23.0991 32.3346 24.0847L25.7518 35.3887C25.1768 36.3761 24.1131 36.9845 22.9618 36.9845L9.80331 36.9845C8.65204 36.9845 7.58834 36.3761 7.01331 35.3887L0.430472 24.0847C-0.14349 23.0991 -0.143489 21.8854 0.430472 20.8998L7.01331 9.59584Z" fill="#F2D348"/>
<path fill-rule="evenodd" clip-rule="evenodd" d="M48.3694 0.919367C49.6571 -0.306422 51.6828 -0.306422 52.9705 0.919367L65.9678 13.2922C66.627 13.9197 66.9999 14.789 66.9999 15.698L66.9999 43.942C66.9999 44.851 66.627 45.7204 65.9678 46.3479L52.9705 58.7207C51.6828 59.9465 49.6571 59.9465 48.3694 58.7207L35.3721 46.3479C34.7129 45.7204 34.3399 44.851 34.3399 43.942L34.3399 15.698C34.3399 14.789 34.7129 13.9197 35.3721 13.2922L48.3694 0.919367Z" fill="black"/>
<mask id="mask0_5_262" style="mask-type:alpha" maskUnits="userSpaceOnUse" x="34" y="0" width="33" height="60">
<path fill-rule="evenodd" clip-rule="evenodd" d="M48.3694 0.919367C49.6571 -0.306422 51.6828 -0.306422 52.9705 0.919367L65.9678 13.2922C66.627 13.9197 66.9999 14.789 66.9999 15.698L66.9999 43.942C66.9999 44.851 66.627 45.7204 65.9678 46.3479L52.9705 58.7207C51.6828 59.9465 49.6571 59.9465 48.3694 58.7207L35.3721 46.3479C34.7129 45.7204 34.3399 44.851 34.3399 43.942L34.3399 15.698C34.3399 14.789 34.7129 13.9197 35.3721 13.2922L48.3694 0.919367Z" fill="black"/>
</mask>
<g mask="url(#mask0_5_262)">
<path d="M34.34 44.73L34.34 34.08L68.42 34.08L68.42 44.73L34.34 44.73Z" fill="#F2D348"/>
<path d="M34.34 61.06L34.34 47.57L67 47.57L67 61.06L34.34 61.06Z" fill="#F2D348"/>
<path d="M34.34 29.82L34.34 26.98L67 26.98L67 29.82L34.34 29.82Z" fill="#F2D348"/>
</g>
<path fill-rule="evenodd" clip-rule="evenodd" d="M43.2193 11.0352C43.5307 10.8668 43.9082 10.8766 44.2104 11.061L46.4951 12.4552C46.7989 12.6406 46.9805 12.9742 46.9712 13.33L46.9019 15.9904C46.8926 16.3462 46.6939 16.6699 46.3809 16.8392L44.0266 18.1125C43.7152 18.2809 43.3378 18.2711 43.0356 18.0867L40.7508 16.6925C40.447 16.5071 40.2654 16.1735 40.2747 15.8177L40.344 13.1573C40.3533 12.8015 40.552 12.4778 40.865 12.3085L43.2193 11.0352Z" fill="#8247E5"/>
<path fill-rule="evenodd" clip-rule="evenodd" d="M43.2369 3.06604C43.5483 2.89762 43.9258 2.90746 44.228 3.09186L46.5127 4.48604C46.8165 4.67142 46.9981 5.00503 46.9888 5.36081L46.9195 8.02127C46.9102 8.37705 46.7115 8.70075 46.3985 8.87006L44.0442 10.1433C43.7328 10.3118 43.3554 10.3019 43.0532 10.1175L40.7684 8.72334C40.4646 8.53796 40.283 8.20435 40.2923 7.84857L40.3616 5.18811C40.3709 4.83233 40.5696 4.50864 40.8826 4.33933L43.2369 3.06604Z" fill="#8247E5"/>
</svg>
